<svg width="40" height="45" viewBox="0 0 40 45" xmlns="http://www.w3.org/2000/svg">
<g clip-path="url(#clip0_1_275)">
<path d="M27.109 19.8545C28.7171 21.3784 28.512 24.4284 31.5891 25.1124C30.2687 23.9118 31.9358 23.5013 31.8249 22.7158C33.9778 22.9069 33.5604 21.0646 33.6712 20.0315C33.8858 18.0146 35.1897 18.6161 36.1801 18.8096C38.9106 19.3167 40.0684 18.6798 40.0094 15.5072C39.8562 7.33135 40.0094 7.31719 31.8815 7.43278C26.3827 7.51062 20.8698 8.10269 15.4088 6.94685C15.2979 6.92326 15.1565 7.03177 14.2887 7.36201C17.8823 7.68518 20.7307 7.95172 23.5815 8.18997C24.3502 8.25366 24.5789 8.44237 24.6166 9.3694C24.7274 12.0821 23.4376 14.9151 25.1943 17.5075C25.2297 17.5594 25.1307 17.7905 25.0953 17.7905C24.5978 17.7905 23.9894 17.9226 23.631 17.6891C23.2726 17.4556 22.7656 16.7196 22.8741 16.387C24.1144 12.5869 21.5819 12.9124 19.2523 12.9737C17.7644 13.0138 16.2694 13.1389 14.791 13.0374C12.6146 12.8888 11.3342 11.6646 10.8579 9.49914C10.6787 8.6759 10.8579 7.37616 9.33465 7.47052C9.66005 7.92342 10.2071 8.34565 10.2778 8.83865C10.872 13.0068 13.6922 13.7923 17.2315 13.5399C18.0921 13.4809 18.9552 13.3936 19.8252 13.3795C21.6786 13.3512 23.6899 13.1837 22.4473 16.1558C22.2987 16.512 22.5793 17.0475 22.6595 17.498L22.8246 17.616H16.3803V18.0877L20.6246 17.8731C17.854 18.6444 14.9348 18.6303 12.3151 20.0102C16.7575 18.6185 21.2895 18.359 26.1116 18.4062C25.5079 19.3049 23.6947 19.0266 24.9019 20.4702C24.9326 19.9064 25.0246 19.4842 25.7437 19.3262C26.4252 19.1752 26.852 19.2695 27.1585 19.8899C27.0406 19.2601 27.3354 18.5218 26.2861 17.9014C27.4108 17.9014 28.2951 17.6396 28.8539 17.9533C30.2474 18.7388 34.3338 15.6699 32.8624 20.6872C32.5347 21.8053 32.155 22.1403 31.1482 21.5152L30.7143 21.7888C32.0112 22.7866 30.2215 23.4282 30.8181 25.0912C29.5896 23.2489 28.6959 22.2252 28.5804 20.7981L28.4224 20.8122L28.4648 20.6707L28.5615 20.8288L30.7426 21.8148C30.6672 21.626 30.5917 21.4373 30.5068 21.2486L30.8817 21.3052C29.9386 20.0126 28.5238 19.9206 27.109 19.8545ZM31.6952 7.80783C34.1617 7.80783 35.8571 7.91162 37.5312 7.77717C38.979 7.66158 39.5237 8.19232 39.5048 9.58877C39.4742 12.0609 39.4647 14.5424 39.5213 17.0027C39.552 18.2199 39.0262 18.5336 37.8991 18.4675C33.7537 18.2198 29.658 16.7361 25.4466 17.9179C25.3547 17.9439 25.1684 17.6325 25.0269 17.4792C25.9512 16.6512 25.6046 15.5284 25.6423 14.5306C25.7202 12.3817 24.8406 9.15003 25.8781 8.33858C27.3448 7.20396 30.2003 7.87624 31.6858 7.80783H31.6952ZM24.9727 10.9121L25.1873 10.8602V16.4318H24.9727V10.9121Z"/>
<path d="M2.36683 24.7963C0.44273 19.0643 1.0275 13.1294 0.985058 7.25114C0.968553 5.25083 1.11475 3.24108 1.90938 1.35399C2.1242 0.957271 2.43667 0.621954 2.8172 0.379778C2.88322 0.330242 3.33595 0.674631 3.50101 0.912876C4.02448 1.66063 2.98698 1.26671 2.91388 1.68423C2.64743 3.21041 2.17112 4.71064 2.02021 6.2439C1.4991 11.5938 2.14754 16.8989 2.77947 22.1992C2.83842 22.6922 3.10723 23.1617 3.48686 24.209C2.35032 16.3729 1.58162 9.16889 3.33595 1.94134C3.66842 3.37553 3.17797 5.09514 5.14215 5.99623C4.68235 5.21073 4.23433 4.63988 4.01268 3.99355C3.86177 3.54772 4.02684 2.99575 4.04806 2.49332C4.62576 2.69146 5.50764 2.7292 5.72457 3.12313C6.37773 4.32615 7.61094 4.36153 8.64609 4.79321C7.37279 3.98018 6.10027 3.16638 4.82855 2.35178C4.65327 2.26034 4.50154 2.12955 4.38525 1.96965C3.95846 1.17235 4.01269 -0.247682 2.67572 0.030664C1.40242 0.294856 1.22322 1.6512 1.07702 2.73392C0.146981 9.46037 0.250351 16.2895 1.38355 22.9847C1.49438 23.6264 1.48023 24.5109 2.4022 24.7657L2.36683 24.7963Z"/>
<path d="M32.3484 25.412C31.0893 33.2482 35.6189 38.6853 39.7194 44.3018C35.9632 38.5438 31.5444 33.0594 32.3484 25.412Z"/>
<path d="M27.6254 33.9369C30.2475 37.1686 30.5304 41.2659 31.8084 44.9976C31.0869 41.0395 30.6294 36.9917 27.8659 33.7317L27.6254 33.9369Z"/>
<path d="M24.3101 23.3787C25.3358 22.3196 26.3426 25.6432 27.4556 24.0109C27.9932 23.2254 26.8638 22.0907 25.996 21.0953C26.2554 22.9564 25.1707 23.3315 24.3101 23.3787ZM26.7246 22.5248C26.8158 23.0217 26.9093 23.5202 27.0052 24.0203C26.7506 23.9708 26.4393 24.0014 26.2554 23.8622C25.5268 23.3056 26.5336 23.0036 26.7246 22.5248Z"/>
<path d="M12.9376 18.8921C10.5136 19.3049 8.19576 20.0716 6.13961 21.5223L12.9376 18.8921Z"/>
<path d="M2.39519 24.7704C2.34804 25.6054 2.96582 25.7682 3.54116 25.6951C3.87128 25.655 4.15188 25.2092 4.4537 24.9473C3.93259 24.3623 4.77439 24.0722 4.74845 23.5792C4.75562 23.2707 4.79113 22.9635 4.85455 22.6616C2.94224 22.1167 5.28371 26.4169 2.3669 24.7964L2.39519 24.7704Z"/>
<path d="M23.9823 30.7737C24.7982 32.2857 26.1823 33.1444 27.6254 33.9369L27.8612 33.7317C26.5172 32.7882 25.1094 31.9319 24.1804 30.5213L23.9823 30.7737Z"/>
<path d="M9.32288 7.47052C8.71217 5.15175 6.61594 6.67086 5.41574 5.87356C6.52634 6.89967 8.36555 6.03633 9.32524 7.46344L9.32288 7.47052Z"/>
<path d="M22.4567 28.7545C22.4756 28.3228 22.327 27.7025 22.5534 27.502C22.9024 27.193 23.2278 27.5798 23.3716 28.0044C23.3905 28.061 23.6286 28.0445 23.7654 28.061C23.6994 27.7968 23.7182 27.4383 23.5508 27.285C22.8788 26.6622 22.8953 26.1055 23.5885 25.5441L23.4117 25.3955C23.2136 26.6646 21.0537 27.3062 22.2327 29.0211L22.4567 28.7545Z"/>
<path d="M11.6879 6.39015L14.6118 7.21812L14.7108 6.87372L11.8129 6.00094L11.6879 6.39015Z"/>
<path d="M11.353 5.87356L8.99506 4.81208L8.8418 5.18478L11.2516 6.16135L11.353 5.87356Z"/>
<path d="M11.4568 19.9371L8.7051 21.218C9.74025 21.0127 10.931 21.1024 11.4568 19.9206V19.9371Z"/>
<path d="M13.2607 18.9063L16.0266 18.3024L15.9629 17.9533L13.1781 18.5147L13.2607 18.9063Z"/>
<path d="M23.5886 25.5512C23.881 25.4097 24.5317 26.6622 24.4657 25.3672C24.4445 24.9355 23.9116 24.5298 23.6381 24.1524C23.5768 24.4873 23.4942 24.945 23.4023 25.4026L23.5886 25.5512Z"/>
<path d="M5.95335 23.1923L7.67467 22.1521L7.46953 21.8195L5.76 22.8998L5.95335 23.1923Z"/>
<path d="M23.1547 29.4763L22.4473 28.7545L22.2327 29.0211L22.9401 29.7287L23.1547 29.4763Z"/>
<path d="M22.9613 29.7264L23.6687 30.434L23.8668 30.1816L23.1594 29.474L22.9613 29.7264Z"/>
<path d="M5.56189 23.1569L4.96533 23.5273L5.05257 23.6806L5.65857 23.3268L5.56189 23.1569Z"/>
<path d="M8.29713 21.4939L7.86563 21.7723C7.90335 21.8195 7.96466 21.9115 7.97645 21.9044C8.13915 21.8265 8.29478 21.7346 8.44804 21.6449L8.29713 21.4939Z"/>
<path d="M5.36763 21.9188L5.45108 21.8973L5.3867 21.945L5.36763 21.9188Z"/>
<path d="M24.876 20.456L25.3476 20.6188C25.3476 20.5811 25.3476 20.5127 25.3476 20.5127C25.1849 20.4891 25.0222 20.4726 24.8572 20.456H24.876Z"/>
<path d="M5.38742 21.9445L5.20821 22.303L5.3096 22.3408C5.32847 22.1992 5.34969 22.0601 5.36855 21.9185L5.38742 21.9445Z"/>
<path d="M24.1851 30.5213L23.8668 30.1864L23.6687 30.4388L23.9823 30.7737L24.1851 30.5213Z"/>
<path d="M11.4568 19.9206L11.6785 20.1187L11.7917 19.9772L11.4568 19.9418V19.9206Z"/>
<path d="M30.8652 21.2675C30.9525 21.3571 31.0421 21.4444 31.1293 21.5317C31.0421 21.4444 30.9525 21.3571 30.8652 21.2675Z"/>
</g>
<defs>
<clipPath id="clip0_1_275">
<rect width="39.5572" height="45" transform="matrix(-1 0 0 1 40 0)"/>
</clipPath>
</defs>
</svg>
