<svg width="65" height="45" viewBox="0 0 65 45" fill="none" xmlns="http://www.w3.org/2000/svg">
<mask id="path-1-inside-1_1_304" fill="white">
<path d="M43.2705 19.18C42.9083 19.9698 42.5622 20.7303 42.2095 21.4879C42.1537 21.6069 42.1471 21.7836 41.9551 21.7902C41.7858 21.7958 41.7603 21.64 41.6922 21.537C41.319 20.9746 40.9473 20.4116 40.5773 19.8479C40.4297 19.624 40.3257 19.5645 40.1896 19.8725C39.8917 20.5404 39.8813 20.5338 40.4364 20.991C40.7919 21.2848 41.1437 21.5852 41.4964 21.8828C41.6856 22.0443 41.8378 22.2436 41.7707 22.4987C41.5182 23.4528 41.2184 24.4079 40.4014 25.0323C40.0354 25.3157 40.0089 25.5377 40.0647 25.9571C40.1839 26.8574 40.1706 27.752 39.677 28.5956C38.9857 29.7793 38.1233 30.7683 36.911 31.4296C36.1204 31.8613 35.3402 32.31 34.6414 32.8816C34.1449 33.2678 33.7127 33.7301 33.361 34.2514C33.2986 34.3458 33.2466 34.4837 33.1038 34.463C32.9402 34.4393 32.9411 34.2844 32.9146 34.1588C32.8111 33.7569 32.7497 33.3453 32.7312 32.9307C32.6934 32.003 33.1473 31.3087 34.0078 30.9601L34.5676 30.7315C33.9804 30.3338 33.4196 30.0343 32.7889 29.8737C32.6149 29.8387 32.4436 29.7914 32.2763 29.732C31.9122 29.5828 31.8527 29.2871 32.1307 29.0056C32.2692 28.8577 32.4422 28.7463 32.6343 28.6814C32.8263 28.6164 33.0315 28.5999 33.2314 28.6334C33.691 28.6995 34.0825 28.9168 34.4447 29.1917C34.6575 29.3494 34.8759 29.5015 35.1209 29.6782C35.1301 29.6239 35.133 29.5688 35.1294 29.5138C34.2508 26.8017 33.4017 24.0772 32.0579 21.5436C31.9141 21.2725 31.8148 20.9088 31.5851 20.7718C31.3553 20.6348 31.0167 20.9201 30.733 21.007C29.9926 21.2262 29.2512 21.4284 28.472 21.4397C28.4247 21.4397 28.3774 21.4397 28.3301 21.4397C28.036 21.4142 27.6946 21.4312 27.5736 21.0939C27.4525 20.7567 27.7542 20.5687 27.9651 20.3675C28.0597 20.273 28.2857 20.2371 28.2403 20.0954C28.1949 19.9537 27.9897 20.0425 27.862 20.0331C27.1764 19.9868 26.5674 20.2825 25.9471 20.4998C25.2544 20.7503 24.602 21.1004 24.0104 21.5389C23.8212 21.6759 23.8004 21.7656 23.9508 21.9829C24.6477 22.9899 25.0449 24.116 25.235 25.3261C25.3296 25.943 25.4241 26.5617 25.5376 27.1758C25.7967 28.6428 26 30.1175 26.2241 31.5893C26.5617 33.7998 26.8776 36.0141 27.2038 38.2275C27.2311 38.3429 27.2209 38.464 27.1745 38.5732C26.7622 39.4093 26.3537 40.2462 25.9404 41.0813C25.7627 41.4413 25.6898 41.4469 25.4307 41.1267C24.9021 40.473 24.3792 39.8145 23.8449 39.1655C23.724 39.0211 23.661 38.837 23.668 38.6488C23.651 35.641 23.4959 32.6369 23.3465 29.6338C23.2803 28.3027 23.2453 26.9698 23.1574 25.6407C23.1054 24.8981 23.0628 24.1537 23.0099 23.4112C22.9711 22.9077 23.0099 22.4165 23.2255 21.9545C23.2584 21.9064 23.2721 21.8477 23.2638 21.7901C23.2556 21.7324 23.2261 21.6798 23.181 21.6428C22.537 20.9976 21.8978 20.3467 21.2576 19.6977C21.1904 19.6288 21.1148 19.5409 21.0193 19.6099C20.9238 19.6788 21.0363 19.7553 21.0656 19.8196C21.3928 20.529 21.7427 21.2281 22.2146 21.8554C22.642 22.4222 22.729 23.0296 22.4935 23.6975C22.2604 24.3669 21.9931 25.024 21.6926 25.6662C19.2462 30.8562 15.5042 34.9702 11.0672 38.5137C10.7949 38.731 10.6975 38.9502 10.7315 39.2987C10.8989 41.0606 10.9736 42.829 11.0303 44.5974C11.0407 44.9243 10.9244 44.9951 10.6228 44.9942C7.20894 44.986 3.79513 44.9841 0.381325 44.9885C0.298484 44.9909 0.21559 44.9862 0.133565 44.9743C0.0954902 44.9676 0.0610845 44.9475 0.0365895 44.9176C0.0120946 44.8877 -0.000869566 44.85 4.53149e-05 44.8114C0.000960196 44.7728 0.0156935 44.7358 0.0415764 44.7071C0.0674592 44.6784 0.102778 44.6599 0.141129 44.655C0.258976 44.6437 0.377369 44.6389 0.495749 44.6409C3.75542 44.6409 7.01508 44.6409 10.2748 44.6465C10.567 44.6465 10.6833 44.604 10.671 44.2687C10.6246 42.9357 10.5944 41.6037 10.4818 40.2736C10.4516 39.9099 10.4109 39.5481 10.3684 39.1863C10.3435 39.0214 10.3658 38.8528 10.4327 38.7001C10.4997 38.5473 10.6085 38.4165 10.7466 38.3229C14.115 35.742 16.9558 32.6671 19.336 29.1596C20.4708 27.4913 21.4164 25.7313 22.0935 23.8231C22.3385 23.1288 22.3205 22.5261 21.842 21.9338C21.4032 21.3877 21.1167 20.7425 20.8018 20.1172C20.6974 19.9033 20.6333 19.6721 20.6126 19.4351C20.5961 19.2371 20.5186 19.049 20.3908 18.8967C20.2629 18.7445 20.091 18.6356 19.8987 18.5849C19.615 18.4999 19.4391 18.6491 19.2953 18.8466C18.7361 19.6118 18.1823 20.3804 17.6338 21.1525C17.021 21.9914 16.2645 22.6659 15.2858 23.0853C14.7496 23.3149 14.3401 23.7164 13.9619 24.1424C11.5363 26.8961 9.31775 29.7925 7.64111 33.0762C7.5664 33.2235 7.50115 33.3756 7.43022 33.5258C7.3801 33.6316 7.34133 33.762 7.18625 33.7374C7.03116 33.7129 7.03589 33.5816 7.02738 33.4607C6.90177 31.7597 6.89198 30.0522 6.99806 28.35C7.14842 25.8712 7.62314 23.449 8.21701 21.0429C8.42291 20.1846 8.91724 19.4227 9.61752 18.8844C10.3958 18.2637 11.2875 17.8509 12.2209 17.5297C13.4698 17.1141 14.6603 16.5405 15.7633 15.8227C16.1614 15.5582 16.3818 15.6696 16.4102 16.1476C16.4716 17.1802 16.6097 18.1957 16.9898 19.1536C17.0012 19.1599 17.0137 19.1637 17.0266 19.165C17.0395 19.1662 17.0525 19.1648 17.0648 19.1608C17.0771 19.1568 17.0885 19.1504 17.0982 19.1418C17.1079 19.1333 17.1158 19.1228 17.1213 19.1111C17.5695 18.3667 18.1265 17.7054 18.7119 17.0687C18.8566 16.91 18.8764 16.7976 18.762 16.6086C18.4186 16.0141 18.0456 15.4371 17.6442 14.8799C17.4182 14.5814 17.37 14.331 17.63 13.9985C18.1823 13.2928 18.2409 12.454 18.1587 11.5972C18.0433 10.4012 17.7038 9.25153 17.3851 8.10187C16.9671 6.59039 16.9009 5.08836 17.2906 3.57783C17.7501 1.8009 19.0343 0.84678 20.7006 0.330989C22.5351 -0.235815 24.2827 -0.0846674 25.9962 0.861895C26.9523 1.38808 27.9405 1.84058 28.7386 2.60198C29.0223 2.87121 29.2928 3.15461 29.55 3.44746C30.2233 4.21548 30.2271 5.45773 29.3769 5.93856C29.22 6.02736 29.2824 6.17096 29.3013 6.28904C29.377 6.84262 29.3543 7.39997 29.3769 7.95544C29.3959 8.44667 29.2531 8.86611 28.8474 9.17218C28.8096 9.20052 28.7802 9.2402 28.7424 9.26665C28.3244 9.56989 28.1958 9.91092 28.4587 10.4163C28.6601 10.8084 28.7424 11.2609 28.8776 11.6869C28.9826 12.0156 28.9211 12.2858 28.6242 12.4974C28.4688 12.6247 28.3202 12.76 28.1788 12.9027C28.0502 13.0151 28.105 13.1389 28.1504 13.2598C28.21 13.4185 28.3329 13.3325 28.4199 13.308C28.9334 13.1606 29.4488 13.0246 29.9869 13.0085C30.7822 12.9811 31.0801 13.1974 31.3033 13.9532C31.8189 15.7002 32.3343 17.4469 32.8494 19.1933C32.8891 19.3302 33.012 19.489 32.8437 19.6155C32.6924 19.7289 32.6224 19.5513 32.5156 19.4965C32.3264 19.402 32.1212 19.4134 31.9217 19.4266C30.6761 19.5089 29.4664 19.8775 28.3869 20.5035C28.3142 20.5434 28.2458 20.5906 28.1826 20.6443C28.0805 20.7387 27.8913 20.7964 27.9358 20.956C27.9802 21.1157 28.1731 21.0769 28.3074 21.0798C29.3732 21.1015 30.3689 20.7964 31.3335 20.3854C31.6257 20.2598 31.7619 20.2976 31.9217 20.5744C33.1076 22.6243 33.9445 24.8254 34.6944 27.0577C34.9913 27.9428 35.2807 28.8318 35.5767 29.7188C35.6324 29.886 35.6618 30.0485 35.5086 30.1741C35.3554 30.2998 35.2183 30.1874 35.0934 30.0995C34.7747 29.8728 34.4589 29.6432 34.1421 29.4146C33.8688 29.2043 33.5513 29.0587 33.2135 28.9886C33.0142 28.9499 32.8078 28.9803 32.6281 29.0745C32.5175 29.1312 32.3567 29.1879 32.3766 29.3372C32.3964 29.4864 32.56 29.4666 32.6688 29.4874C33.4395 29.6395 34.1128 30.005 34.7587 30.432C34.8882 30.5171 35.0282 30.5907 35.0036 30.7844C34.9809 30.9601 34.84 31.0017 34.7095 31.0555C34.5204 31.133 34.336 31.2067 34.1497 31.2832C33.3846 31.6015 33.0347 32.1476 33.0811 32.9779C33.0962 33.2415 33.1019 33.5126 33.2267 33.8045C34.2348 32.5132 35.6069 31.765 36.9639 30.9866C38.1857 30.2875 39.0132 29.2181 39.5957 27.9636C39.9002 27.3023 39.8179 26.5976 39.7205 25.9061C39.6553 25.4338 39.7025 25.0559 40.1829 24.8122C40.4468 24.679 40.6208 24.4343 40.7579 24.1566C40.9972 23.6678 41.2066 23.1649 41.3849 22.6508C41.4567 22.4514 41.4331 22.289 41.2572 22.1454C40.8159 21.7864 40.3803 21.4214 39.9503 21.0505C39.7924 20.9154 39.7233 20.9305 39.6184 21.1223C39.4501 21.4302 39.417 21.6834 39.7186 21.9243C39.8509 22.0418 39.975 22.168 40.0903 22.3022C40.1743 22.3864 40.2394 22.4877 40.281 22.5991C40.3226 22.7106 40.3398 22.8297 40.3314 22.9483C40.3106 23.2752 40.0477 23.432 39.7574 23.2771C39.5493 23.1656 39.3583 23.0211 39.1512 22.9068C39.0567 22.8539 38.9375 22.6687 38.8382 22.8643C38.7597 23.0192 38.5403 23.1826 38.7682 23.3933C38.9819 23.5821 39.1556 23.8117 39.2789 24.0687C39.4075 24.3521 39.3337 24.5637 39.0434 24.661C38.7533 24.7685 38.4413 24.8032 38.1347 24.7621C37.8207 24.7111 37.6618 24.4986 37.8235 24.2378C38.1706 23.671 38.1923 23.1987 37.6287 22.7698C37.5134 22.6819 37.4689 22.5091 37.4528 22.3523C37.4301 22.1435 37.4528 21.9432 37.6297 21.8034C37.8188 21.6513 38.0079 21.7363 38.1971 21.8327C38.2604 21.8657 38.3134 21.9177 38.3786 21.9442C38.5129 21.9989 38.6349 22.2597 38.772 22.0887C38.9091 21.9177 39.0983 21.6938 38.8921 21.4208C38.7345 21.2116 38.6274 20.9688 38.5791 20.7114C38.5365 20.4846 38.5848 20.2825 38.7767 20.1446C38.86 20.0826 38.9624 20.0517 39.0661 20.0574C39.1698 20.0631 39.2682 20.105 39.3441 20.1757C39.5607 20.3458 39.6609 20.2806 39.7423 20.0482C39.8088 19.8709 39.8871 19.6983 39.9768 19.5315C40.0279 19.4467 40.0575 19.3508 40.063 19.2519C40.0684 19.1531 40.0495 19.0545 40.008 18.9647C39.8113 18.4867 40.008 18.1428 40.5007 18.0719C40.6747 18.0474 40.703 17.9321 40.7541 17.8188C40.9981 17.2794 41.2487 16.7437 41.4766 16.1977C41.6903 15.6876 42.0109 15.3928 42.6114 15.4278C43.0946 15.4571 43.5816 15.3938 44.0677 15.3976C44.6663 15.3976 44.8592 15.7065 44.6152 16.2544C44.2833 17.0007 43.9485 17.746 43.592 18.48C43.4823 18.7077 43.5079 18.8579 43.661 19.0468C43.9949 19.4606 44.3003 19.8971 44.619 20.325C44.8621 20.6513 44.9829 21.0525 44.9604 21.4586C44.9226 22.7481 44.5746 23.9818 44.2823 25.2241C44.1263 25.8853 43.9589 26.5466 43.7934 27.2079C43.5854 28.042 43.3783 28.8771 43.1627 29.7094C43.0577 30.1137 43.036 30.4916 43.2979 30.86C43.3806 30.9718 43.4243 31.1077 43.4224 31.2467C43.4205 31.3857 43.3732 31.5203 43.2875 31.6299C41.2922 34.3477 39.4274 37.1865 36.5734 39.1353C35.71 39.7248 34.8627 40.3388 33.9426 40.8518C33.0792 41.3336 32.2309 41.8446 31.3401 42.2792C31.2802 42.3021 31.2288 42.3429 31.1928 42.3959C31.1568 42.449 31.1379 42.5117 31.1387 42.5758C31.1018 43.1776 31.0536 43.7784 30.9978 44.3792C30.9798 44.5681 31.0318 44.6446 31.2238 44.6257C31.3184 44.6172 31.4129 44.6257 31.5075 44.6257C42.2249 44.6257 52.9423 44.6276 63.6597 44.6314C63.8328 44.6314 64.1496 44.5029 64.1439 44.8052C64.1382 45.1075 63.8243 44.9677 63.6512 44.9677C52.8645 44.9753 42.0771 44.9775 31.2891 44.9743C31.1472 44.9743 31.0054 44.9743 30.8626 44.9743C30.6867 44.9743 30.5959 44.9016 30.612 44.7174C30.6845 43.9163 30.756 43.1155 30.8266 42.3151C30.8408 42.1488 30.9439 42.078 31.082 42.0109C31.6985 41.7114 32.3264 41.4318 32.9203 41.0908C33.8291 40.5693 34.7237 40.0233 35.5861 39.4244C36.91 38.5033 38.1904 37.5246 39.2486 36.3013C40.565 34.7775 41.7726 33.1659 42.9414 31.526C43.0634 31.3559 43.105 31.1755 42.9745 31.0007C42.6672 30.5879 42.6908 30.1364 42.8081 29.6782C43.1561 28.3292 43.5476 26.9906 43.8483 25.6312C44.1093 24.4551 44.4223 23.2884 44.5717 22.0877C44.6616 21.3745 44.5935 20.7255 44.08 20.1682C43.7925 19.8678 43.5939 19.4956 43.2705 19.18ZM28.7471 19.8838C28.8578 19.8432 28.9694 19.8035 29.0781 19.7601C30.0626 19.3661 31.064 19.0535 32.142 19.079C32.4343 19.0865 32.4361 19.0166 32.3652 18.7691C31.9236 17.2359 31.43 15.7169 31.0281 14.1723C30.8304 13.4166 30.6035 13.3051 29.7987 13.3684C29.2993 13.4213 28.8083 13.5352 28.3367 13.7076C28.0729 13.7954 27.9225 13.7397 27.8374 13.4534C27.6795 12.9206 27.6927 12.8715 28.1372 12.5267C28.3717 12.3453 28.68 12.1819 28.5817 11.7993C28.5126 11.4894 28.4086 11.1883 28.2715 10.9019C27.8119 10.0044 27.8932 9.59162 28.6375 8.89161C28.6895 8.84249 28.7415 8.79715 28.7925 8.74424C28.9254 8.62178 29.0052 8.45228 29.0148 8.27191C29.0397 7.64497 29.0248 7.01708 28.9703 6.39201C28.9524 6.18891 28.8672 6.16529 28.6942 6.21536C28.1098 6.3854 27.5036 6.4109 26.9041 6.47986C25.4497 6.64896 24.0425 6.5441 22.7271 5.82521C22.0964 5.4804 21.6283 5.57203 21.145 6.10861C20.7403 6.55922 20.5058 7.09862 20.3337 7.67015C20.0963 8.45801 20.0263 9.27137 19.9374 10.0838C19.9053 10.3672 19.9015 10.7177 19.5592 10.8282C19.2169 10.9387 18.9984 10.6563 18.7724 10.4503C18.5889 10.2822 18.4698 10.0469 18.1851 9.87218C18.3023 10.2511 18.3874 10.6391 18.4395 11.0322C18.6183 12.1829 18.622 13.2995 17.8655 14.2876C17.7464 14.4435 17.84 14.5493 17.9241 14.6655C18.3431 15.2256 18.6807 15.8368 19.0589 16.4235C19.2736 16.757 19.2481 17.0177 18.9729 17.3086C18.3711 17.9304 17.8399 18.6166 17.3889 19.3548C17.3 19.505 17.2442 19.7015 17.0239 19.6949C16.7837 19.6883 16.7345 19.4786 16.6645 19.3066C16.2976 18.396 16.151 17.439 16.0688 16.4726C16.0347 16.0768 16.0366 16.074 15.7198 16.2761C14.7591 16.8861 13.7301 17.3817 12.654 17.7526C11.9787 17.9746 11.324 18.255 10.6975 18.5906C9.55038 19.2197 8.79386 20.1002 8.46855 21.4397C7.60233 25.0295 7.12572 28.6494 7.3158 32.345C7.32242 32.4612 7.27798 32.5963 7.41037 32.7115C7.46805 32.6171 7.51817 32.5368 7.56167 32.4555C9.24683 29.3324 11.3793 26.5296 13.7254 23.8826C14.1444 23.4103 14.6115 22.989 15.2007 22.7348C16.0291 22.3686 16.7413 21.7828 17.2603 21.041C17.8097 20.2853 18.3468 19.5192 18.8963 18.7625C19.3814 18.0937 19.7701 18.02 20.4528 18.4791C20.6013 18.5736 20.6571 18.5858 20.7138 18.3988C20.9029 17.7744 21.2689 17.2491 21.7105 16.7796C22.521 15.9162 23.3484 15.0698 24.2213 14.2687C24.921 13.6273 25.7428 13.513 26.6412 13.6811C27.1058 13.7788 27.5595 13.9228 27.9954 14.1109C28.6289 14.3698 28.924 14.8043 28.8947 15.4826C28.8744 15.7784 28.9328 16.0743 29.0639 16.3404C29.1584 16.5257 29.2153 16.7278 29.2315 16.9351C29.2478 17.1424 29.2229 17.3509 29.1585 17.5486C29.0989 17.7432 29.0271 17.951 29.0923 18.14C29.3202 18.8012 29.0346 19.3132 28.6639 19.8111C28.6223 19.8404 28.541 19.8715 28.5836 19.9235C28.6261 19.9755 28.698 19.9311 28.7471 19.8838ZM23.6955 0.895901C23.2841 0.94219 22.8709 0.979033 22.4604 1.0376C19.8533 1.40697 17.3643 3.70158 17.6376 6.94181C17.7426 8.20106 18.1397 9.28648 19.0173 10.1924C19.1365 10.3152 19.2537 10.5306 19.4362 10.4673C19.6188 10.404 19.5771 10.1603 19.5951 9.99499C19.6613 9.38379 19.7105 8.76692 19.8467 8.16894C20.0528 7.26016 20.3403 6.38729 21.0448 5.72129C21.581 5.214 22.1796 5.13276 22.8359 5.48229C23.1562 5.66128 23.4932 5.80872 23.842 5.92251C25.4497 6.41752 27.0573 6.16434 28.6535 5.87244C28.8672 5.83371 28.8682 5.72224 28.8304 5.54086C28.5192 4.04828 27.741 2.84193 26.6317 1.81507C26.1494 1.35176 25.5288 1.05853 24.8643 0.979979C24.4767 0.922925 24.0854 0.894193 23.6936 0.894013L23.6955 0.895901ZM26.0955 13.9626C25.3939 13.9466 24.8662 14.1393 24.4189 14.5587C23.5801 15.3447 22.7735 16.1646 21.9848 16.9969C21.5422 17.4692 21.1772 17.9879 21.0089 18.6236C20.972 18.7616 20.937 18.8891 21.0647 19.0157C21.8458 19.7922 22.6231 20.5722 23.3966 21.3556C23.4912 21.4501 23.5517 21.4605 23.6624 21.3689C24.4596 20.7076 25.3816 20.2815 26.3584 19.9736C26.8161 19.829 27.2681 19.6259 27.7703 19.6637C27.9243 19.6738 28.0785 19.6475 28.2205 19.5869C28.3624 19.5263 28.488 19.4332 28.5872 19.3151C28.6864 19.1969 28.7563 19.0571 28.7914 18.907C28.8264 18.7568 28.8255 18.6005 28.7888 18.4508C28.705 18.129 28.7135 17.7902 28.8133 17.473C28.8678 17.3158 28.8902 17.1494 28.8793 16.9834C28.8685 16.8175 28.8245 16.6554 28.75 16.5066C28.5806 16.1788 28.5103 15.809 28.5476 15.442C28.5733 15.2757 28.5481 15.1056 28.4754 14.9539C28.4027 14.8022 28.2858 14.676 28.14 14.5918C27.4838 14.1912 26.7802 13.9456 26.0936 13.9607L26.0955 13.9626ZM25.6454 40.8234C26.0237 40.097 26.384 39.4329 26.7168 38.7565C26.8251 38.5473 26.8641 38.3091 26.8284 38.0763C26.2383 34.1962 25.6599 30.3146 25.0931 26.4313C24.9428 25.3969 24.7338 24.3852 24.3366 23.4178C24.1911 23.0302 24.0037 22.6596 23.7777 22.3126C23.7257 22.237 23.6832 22.1151 23.581 22.1236C23.4524 22.1388 23.4628 22.2833 23.4354 22.3768C23.3577 22.6628 23.3286 22.9598 23.3494 23.2554C23.46 25.1919 23.5773 27.1285 23.6747 29.0651C23.8297 32.2383 23.9971 35.4067 24.0189 38.578C24.0044 38.6957 24.0337 38.8147 24.1011 38.9124C24.6109 39.5377 25.1139 40.165 25.6454 40.8234ZM43.2081 18.4564C43.5863 17.6383 43.9391 16.8647 44.2975 16.0947C44.4138 15.8435 44.3249 15.7424 44.0648 15.7499C43.5438 15.766 43.0246 15.801 42.5017 15.7906C42.1612 15.7839 41.9759 15.937 41.8492 16.2261C41.6033 16.7929 41.3622 17.3597 41.0927 17.9085C40.983 18.1305 41.0662 18.1806 41.2487 18.2599C41.4492 18.3468 41.5191 18.3204 41.5872 18.1012C41.7679 17.5259 42.2984 17.4107 42.7116 17.8462C42.8799 18.0247 43.0265 18.2288 43.2081 18.4564ZM41.9305 21.2432C42.2047 20.65 42.4582 20.1096 42.7088 19.5589C43.07 18.7719 43.071 18.771 42.497 18.1324C42.4024 18.0294 42.3078 17.8991 42.1414 17.9501C41.9749 18.0011 41.9163 18.1475 41.8908 18.3062C41.7962 18.873 41.7962 18.873 41.2742 18.6472C41.2445 18.6294 41.2127 18.6151 41.1796 18.6047C41.0529 18.5849 40.8846 18.4035 40.808 18.583C40.7134 18.8107 40.4033 19.0289 40.6189 19.3123C41.0756 19.9141 41.4737 20.5555 41.9305 21.2432ZM24.1191 0.528425C22.381 0.0249148 19.9223 0.640841 18.6495 1.88309C17.8929 2.61804 17.5742 3.54382 17.4882 4.57729C18.7686 1.70454 21.0874 0.54354 24.1191 0.528425ZM27.4658 2.19105C27.5982 2.33842 27.7221 2.46406 27.8299 2.60009C28.4688 3.4091 28.9177 4.35113 29.1434 5.35665C29.1613 5.43316 29.133 5.54558 29.2304 5.5692C29.3278 5.59281 29.3892 5.48701 29.4469 5.41616C29.8034 4.98067 29.7675 4.29106 29.3382 3.74693C28.8937 3.19217 28.3769 2.69939 27.8015 2.28174C27.7069 2.20805 27.6124 2.14004 27.4658 2.19105V2.19105ZM38.5016 23.5633C38.3701 23.8467 38.2812 24.0357 38.1942 24.2312C38.1479 24.3313 38.1422 24.4343 38.2888 24.4201C38.5139 24.3927 38.8231 24.5543 38.9422 24.354C39.0614 24.1537 38.7909 23.9761 38.6633 23.7957C38.6207 23.7343 38.5819 23.6757 38.5016 23.5633V23.5633ZM39.2439 21.879C39.2032 22.152 38.9602 22.3088 39.121 22.4458C39.3775 22.6711 39.6743 22.8461 39.9957 22.9616C39.9219 22.4694 39.5049 22.2956 39.2439 21.879ZM37.8075 22.2984C37.8387 22.5818 38.0581 22.7707 38.2642 22.9597C38.2719 22.9682 38.2813 22.975 38.2918 22.9796C38.3023 22.9843 38.3137 22.9867 38.3252 22.9867C38.3367 22.9867 38.3481 22.9843 38.3586 22.9796C38.3691 22.975 38.3785 22.9682 38.3862 22.9597C38.5479 22.8274 38.5583 22.5185 38.3919 22.3929C38.2658 22.3009 38.1397 22.215 38.0136 22.135C37.8538 22.0462 37.8008 22.118 37.8056 22.2984H37.8075ZM39.1692 21.1724C39.3025 21.0533 39.329 20.9097 39.3886 20.785C39.4642 20.6273 39.3186 20.5819 39.2297 20.5177C39.156 20.4657 39.0718 20.3807 38.9772 20.4544C38.8827 20.5281 38.9072 20.6433 38.9413 20.7491C38.9844 20.9052 39.0616 21.0497 39.1673 21.1724H39.1692ZM28.3887 20.0737L28.4408 20.0369C28.4181 20.0189 28.42 19.9622 28.3698 19.9887C28.3409 20.0055 28.3128 20.0238 28.2857 20.0435C28.3103 20.0624 28.3046 20.119 28.3916 20.0737H28.3887Z"/>
</mask>
<path d="M43.2705 19.18C42.9083 19.9698 42.5622 20.7303 42.2095 21.4879C42.1537 21.6069 42.1471 21.7836 41.9551 21.7902C41.7858 21.7958 41.7603 21.64 41.6922 21.537C41.319 20.9746 40.9473 20.4116 40.5773 19.8479C40.4297 19.624 40.3257 19.5645 40.1896 19.8725C39.8917 20.5404 39.8813 20.5338 40.4364 20.991C40.7919 21.2848 41.1437 21.5852 41.4964 21.8828C41.6856 22.0443 41.8378 22.2436 41.7707 22.4987C41.5182 23.4528 41.2184 24.4079 40.4014 25.0323C40.0354 25.3157 40.0089 25.5377 40.0647 25.9571C40.1839 26.8574 40.1706 27.752 39.677 28.5956C38.9857 29.7793 38.1233 30.7683 36.911 31.4296C36.1204 31.8613 35.3402 32.31 34.6414 32.8816C34.1449 33.2678 33.7127 33.7301 33.361 34.2514C33.2986 34.3458 33.2466 34.4837 33.1038 34.463C32.9402 34.4393 32.9411 34.2844 32.9146 34.1588C32.8111 33.7569 32.7497 33.3453 32.7312 32.9307C32.6934 32.003 33.1473 31.3087 34.0078 30.9601L34.5676 30.7315C33.9804 30.3338 33.4196 30.0343 32.7889 29.8737C32.6149 29.8387 32.4436 29.7914 32.2763 29.732C31.9122 29.5828 31.8527 29.2871 32.1307 29.0056C32.2692 28.8577 32.4422 28.7463 32.6343 28.6814C32.8263 28.6164 33.0315 28.5999 33.2314 28.6334C33.691 28.6995 34.0825 28.9168 34.4447 29.1917C34.6575 29.3494 34.8759 29.5015 35.1209 29.6782C35.1301 29.6239 35.133 29.5688 35.1294 29.5138C34.2508 26.8017 33.4017 24.0772 32.0579 21.5436C31.9141 21.2725 31.8148 20.9088 31.5851 20.7718C31.3553 20.6348 31.0167 20.9201 30.733 21.007C29.9926 21.2262 29.2512 21.4284 28.472 21.4397C28.4247 21.4397 28.3774 21.4397 28.3301 21.4397C28.036 21.4142 27.6946 21.4312 27.5736 21.0939C27.4525 20.7567 27.7542 20.5687 27.9651 20.3675C28.0597 20.273 28.2857 20.2371 28.2403 20.0954C28.1949 19.9537 27.9897 20.0425 27.862 20.0331C27.1764 19.9868 26.5674 20.2825 25.9471 20.4998C25.2544 20.7503 24.602 21.1004 24.0104 21.5389C23.8212 21.6759 23.8004 21.7656 23.9508 21.9829C24.6477 22.9899 25.0449 24.116 25.235 25.3261C25.3296 25.943 25.4241 26.5617 25.5376 27.1758C25.7967 28.6428 26 30.1175 26.2241 31.5893C26.5617 33.7998 26.8776 36.0141 27.2038 38.2275C27.2311 38.3429 27.2209 38.464 27.1745 38.5732C26.7622 39.4093 26.3537 40.2462 25.9404 41.0813C25.7627 41.4413 25.6898 41.4469 25.4307 41.1267C24.9021 40.473 24.3792 39.8145 23.8449 39.1655C23.724 39.0211 23.661 38.837 23.668 38.6488C23.651 35.641 23.4959 32.6369 23.3465 29.6338C23.2803 28.3027 23.2453 26.9698 23.1574 25.6407C23.1054 24.8981 23.0628 24.1537 23.0099 23.4112C22.9711 22.9077 23.0099 22.4165 23.2255 21.9545C23.2584 21.9064 23.2721 21.8477 23.2638 21.7901C23.2556 21.7324 23.2261 21.6798 23.181 21.6428C22.537 20.9976 21.8978 20.3467 21.2576 19.6977C21.1904 19.6288 21.1148 19.5409 21.0193 19.6099C20.9238 19.6788 21.0363 19.7553 21.0656 19.8196C21.3928 20.529 21.7427 21.2281 22.2146 21.8554C22.642 22.4222 22.729 23.0296 22.4935 23.6975C22.2604 24.3669 21.9931 25.024 21.6926 25.6662C19.2462 30.8562 15.5042 34.9702 11.0672 38.5137C10.7949 38.731 10.6975 38.9502 10.7315 39.2987C10.8989 41.0606 10.9736 42.829 11.0303 44.5974C11.0407 44.9243 10.9244 44.9951 10.6228 44.9942C7.20894 44.986 3.79513 44.9841 0.381325 44.9885C0.298484 44.9909 0.21559 44.9862 0.133565 44.9743C0.0954902 44.9676 0.0610845 44.9475 0.0365895 44.9176C0.0120946 44.8877 -0.000869566 44.85 4.53149e-05 44.8114C0.000960196 44.7728 0.0156935 44.7358 0.0415764 44.7071C0.0674592 44.6784 0.102778 44.6599 0.141129 44.655C0.258976 44.6437 0.377369 44.6389 0.495749 44.6409C3.75542 44.6409 7.01508 44.6409 10.2748 44.6465C10.567 44.6465 10.6833 44.604 10.671 44.2687C10.6246 42.9357 10.5944 41.6037 10.4818 40.2736C10.4516 39.9099 10.4109 39.5481 10.3684 39.1863C10.3435 39.0214 10.3658 38.8528 10.4327 38.7001C10.4997 38.5473 10.6085 38.4165 10.7466 38.3229C14.115 35.742 16.9558 32.6671 19.336 29.1596C20.4708 27.4913 21.4164 25.7313 22.0935 23.8231C22.3385 23.1288 22.3205 22.5261 21.842 21.9338C21.4032 21.3877 21.1167 20.7425 20.8018 20.1172C20.6974 19.9033 20.6333 19.6721 20.6126 19.4351C20.5961 19.2371 20.5186 19.049 20.3908 18.8967C20.2629 18.7445 20.091 18.6356 19.8987 18.5849C19.615 18.4999 19.4391 18.6491 19.2953 18.8466C18.7361 19.6118 18.1823 20.3804 17.6338 21.1525C17.021 21.9914 16.2645 22.6659 15.2858 23.0853C14.7496 23.3149 14.3401 23.7164 13.9619 24.1424C11.5363 26.8961 9.31775 29.7925 7.64111 33.0762C7.5664 33.2235 7.50115 33.3756 7.43022 33.5258C7.3801 33.6316 7.34133 33.762 7.18625 33.7374C7.03116 33.7129 7.03589 33.5816 7.02738 33.4607C6.90177 31.7597 6.89198 30.0522 6.99806 28.35C7.14842 25.8712 7.62314 23.449 8.21701 21.0429C8.42291 20.1846 8.91724 19.4227 9.61752 18.8844C10.3958 18.2637 11.2875 17.8509 12.2209 17.5297C13.4698 17.1141 14.6603 16.5405 15.7633 15.8227C16.1614 15.5582 16.3818 15.6696 16.4102 16.1476C16.4716 17.1802 16.6097 18.1957 16.9898 19.1536C17.0012 19.1599 17.0137 19.1637 17.0266 19.165C17.0395 19.1662 17.0525 19.1648 17.0648 19.1608C17.0771 19.1568 17.0885 19.1504 17.0982 19.1418C17.1079 19.1333 17.1158 19.1228 17.1213 19.1111C17.5695 18.3667 18.1265 17.7054 18.7119 17.0687C18.8566 16.91 18.8764 16.7976 18.762 16.6086C18.4186 16.0141 18.0456 15.4371 17.6442 14.8799C17.4182 14.5814 17.37 14.331 17.63 13.9985C18.1823 13.2928 18.2409 12.454 18.1587 11.5972C18.0433 10.4012 17.7038 9.25153 17.3851 8.10187C16.9671 6.59039 16.9009 5.08836 17.2906 3.57783C17.7501 1.8009 19.0343 0.84678 20.7006 0.330989C22.5351 -0.235815 24.2827 -0.0846674 25.9962 0.861895C26.9523 1.38808 27.9405 1.84058 28.7386 2.60198C29.0223 2.87121 29.2928 3.15461 29.55 3.44746C30.2233 4.21548 30.2271 5.45773 29.3769 5.93856C29.22 6.02736 29.2824 6.17096 29.3013 6.28904C29.377 6.84262 29.3543 7.39997 29.3769 7.95544C29.3959 8.44667 29.2531 8.86611 28.8474 9.17218C28.8096 9.20052 28.7802 9.2402 28.7424 9.26665C28.3244 9.56989 28.1958 9.91092 28.4587 10.4163C28.6601 10.8084 28.7424 11.2609 28.8776 11.6869C28.9826 12.0156 28.9211 12.2858 28.6242 12.4974C28.4688 12.6247 28.3202 12.76 28.1788 12.9027C28.0502 13.0151 28.105 13.1389 28.1504 13.2598C28.21 13.4185 28.3329 13.3325 28.4199 13.308C28.9334 13.1606 29.4488 13.0246 29.9869 13.0085C30.7822 12.9811 31.0801 13.1974 31.3033 13.9532C31.8189 15.7002 32.3343 17.4469 32.8494 19.1933C32.8891 19.3302 33.012 19.489 32.8437 19.6155C32.6924 19.7289 32.6224 19.5513 32.5156 19.4965C32.3264 19.402 32.1212 19.4134 31.9217 19.4266C30.6761 19.5089 29.4664 19.8775 28.3869 20.5035C28.3142 20.5434 28.2458 20.5906 28.1826 20.6443C28.0805 20.7387 27.8913 20.7964 27.9358 20.956C27.9802 21.1157 28.1731 21.0769 28.3074 21.0798C29.3732 21.1015 30.3689 20.7964 31.3335 20.3854C31.6257 20.2598 31.7619 20.2976 31.9217 20.5744C33.1076 22.6243 33.9445 24.8254 34.6944 27.0577C34.9913 27.9428 35.2807 28.8318 35.5767 29.7188C35.6324 29.886 35.6618 30.0485 35.5086 30.1741C35.3554 30.2998 35.2183 30.1874 35.0934 30.0995C34.7747 29.8728 34.4589 29.6432 34.1421 29.4146C33.8688 29.2043 33.5513 29.0587 33.2135 28.9886C33.0142 28.9499 32.8078 28.9803 32.6281 29.0745C32.5175 29.1312 32.3567 29.1879 32.3766 29.3372C32.3964 29.4864 32.56 29.4666 32.6688 29.4874C33.4395 29.6395 34.1128 30.005 34.7587 30.432C34.8882 30.5171 35.0282 30.5907 35.0036 30.7844C34.9809 30.9601 34.84 31.0017 34.7095 31.0555C34.5204 31.133 34.336 31.2067 34.1497 31.2832C33.3846 31.6015 33.0347 32.1476 33.0811 32.9779C33.0962 33.2415 33.1019 33.5126 33.2267 33.8045C34.2348 32.5132 35.6069 31.765 36.9639 30.9866C38.1857 30.2875 39.0132 29.2181 39.5957 27.9636C39.9002 27.3023 39.8179 26.5976 39.7205 25.9061C39.6553 25.4338 39.7025 25.0559 40.1829 24.8122C40.4468 24.679 40.6208 24.4343 40.7579 24.1566C40.9972 23.6678 41.2066 23.1649 41.3849 22.6508C41.4567 22.4514 41.4331 22.289 41.2572 22.1454C40.8159 21.7864 40.3803 21.4214 39.9503 21.0505C39.7924 20.9154 39.7233 20.9305 39.6184 21.1223C39.4501 21.4302 39.417 21.6834 39.7186 21.9243C39.8509 22.0418 39.975 22.168 40.0903 22.3022C40.1743 22.3864 40.2394 22.4877 40.281 22.5991C40.3226 22.7106 40.3398 22.8297 40.3314 22.9483C40.3106 23.2752 40.0477 23.432 39.7574 23.2771C39.5493 23.1656 39.3583 23.0211 39.1512 22.9068C39.0567 22.8539 38.9375 22.6687 38.8382 22.8643C38.7597 23.0192 38.5403 23.1826 38.7682 23.3933C38.9819 23.5821 39.1556 23.8117 39.2789 24.0687C39.4075 24.3521 39.3337 24.5637 39.0434 24.661C38.7533 24.7685 38.4413 24.8032 38.1347 24.7621C37.8207 24.7111 37.6618 24.4986 37.8235 24.2378C38.1706 23.671 38.1923 23.1987 37.6287 22.7698C37.5134 22.6819 37.4689 22.5091 37.4528 22.3523C37.4301 22.1435 37.4528 21.9432 37.6297 21.8034C37.8188 21.6513 38.0079 21.7363 38.1971 21.8327C38.2604 21.8657 38.3134 21.9177 38.3786 21.9442C38.5129 21.9989 38.6349 22.2597 38.772 22.0887C38.9091 21.9177 39.0983 21.6938 38.8921 21.4208C38.7345 21.2116 38.6274 20.9688 38.5791 20.7114C38.5365 20.4846 38.5848 20.2825 38.7767 20.1446C38.86 20.0826 38.9624 20.0517 39.0661 20.0574C39.1698 20.0631 39.2682 20.105 39.3441 20.1757C39.5607 20.3458 39.6609 20.2806 39.7423 20.0482C39.8088 19.8709 39.8871 19.6983 39.9768 19.5315C40.0279 19.4467 40.0575 19.3508 40.063 19.2519C40.0684 19.1531 40.0495 19.0545 40.008 18.9647C39.8113 18.4867 40.008 18.1428 40.5007 18.0719C40.6747 18.0474 40.703 17.9321 40.7541 17.8188C40.9981 17.2794 41.2487 16.7437 41.4766 16.1977C41.6903 15.6876 42.0109 15.3928 42.6114 15.4278C43.0946 15.4571 43.5816 15.3938 44.0677 15.3976C44.6663 15.3976 44.8592 15.7065 44.6152 16.2544C44.2833 17.0007 43.9485 17.746 43.592 18.48C43.4823 18.7077 43.5079 18.8579 43.661 19.0468C43.9949 19.4606 44.3003 19.8971 44.619 20.325C44.8621 20.6513 44.9829 21.0525 44.9604 21.4586C44.9226 22.7481 44.5746 23.9818 44.2823 25.2241C44.1263 25.8853 43.9589 26.5466 43.7934 27.2079C43.5854 28.042 43.3783 28.8771 43.1627 29.7094C43.0577 30.1137 43.036 30.4916 43.2979 30.86C43.3806 30.9718 43.4243 31.1077 43.4224 31.2467C43.4205 31.3857 43.3732 31.5203 43.2875 31.6299C41.2922 34.3477 39.4274 37.1865 36.5734 39.1353C35.71 39.7248 34.8627 40.3388 33.9426 40.8518C33.0792 41.3336 32.2309 41.8446 31.3401 42.2792C31.2802 42.3021 31.2288 42.3429 31.1928 42.3959C31.1568 42.449 31.1379 42.5117 31.1387 42.5758C31.1018 43.1776 31.0536 43.7784 30.9978 44.3792C30.9798 44.5681 31.0318 44.6446 31.2238 44.6257C31.3184 44.6172 31.4129 44.6257 31.5075 44.6257C42.2249 44.6257 52.9423 44.6276 63.6597 44.6314C63.8328 44.6314 64.1496 44.5029 64.1439 44.8052C64.1382 45.1075 63.8243 44.9677 63.6512 44.9677C52.8645 44.9753 42.0771 44.9775 31.2891 44.9743C31.1472 44.9743 31.0054 44.9743 30.8626 44.9743C30.6867 44.9743 30.5959 44.9016 30.612 44.7174C30.6845 43.9163 30.756 43.1155 30.8266 42.3151C30.8408 42.1488 30.9439 42.078 31.082 42.0109C31.6985 41.7114 32.3264 41.4318 32.9203 41.0908C33.8291 40.5693 34.7237 40.0233 35.5861 39.4244C36.91 38.5033 38.1904 37.5246 39.2486 36.3013C40.565 34.7775 41.7726 33.1659 42.9414 31.526C43.0634 31.3559 43.105 31.1755 42.9745 31.0007C42.6672 30.5879 42.6908 30.1364 42.8081 29.6782C43.1561 28.3292 43.5476 26.9906 43.8483 25.6312C44.1093 24.4551 44.4223 23.2884 44.5717 22.0877C44.6616 21.3745 44.5935 20.7255 44.08 20.1682C43.7925 19.8678 43.5939 19.4956 43.2705 19.18ZM28.7471 19.8838C28.8578 19.8432 28.9694 19.8035 29.0781 19.7601C30.0626 19.3661 31.064 19.0535 32.142 19.079C32.4343 19.0865 32.4361 19.0166 32.3652 18.7691C31.9236 17.2359 31.43 15.7169 31.0281 14.1723C30.8304 13.4166 30.6035 13.3051 29.7987 13.3684C29.2993 13.4213 28.8083 13.5352 28.3367 13.7076C28.0729 13.7954 27.9225 13.7397 27.8374 13.4534C27.6795 12.9206 27.6927 12.8715 28.1372 12.5267C28.3717 12.3453 28.68 12.1819 28.5817 11.7993C28.5126 11.4894 28.4086 11.1883 28.2715 10.9019C27.8119 10.0044 27.8932 9.59162 28.6375 8.89161C28.6895 8.84249 28.7415 8.79715 28.7925 8.74424C28.9254 8.62178 29.0052 8.45228 29.0148 8.27191C29.0397 7.64497 29.0248 7.01708 28.9703 6.39201C28.9524 6.18891 28.8672 6.16529 28.6942 6.21536C28.1098 6.3854 27.5036 6.4109 26.9041 6.47986C25.4497 6.64896 24.0425 6.5441 22.7271 5.82521C22.0964 5.4804 21.6283 5.57203 21.145 6.10861C20.7403 6.55922 20.5058 7.09862 20.3337 7.67015C20.0963 8.45801 20.0263 9.27137 19.9374 10.0838C19.9053 10.3672 19.9015 10.7177 19.5592 10.8282C19.2169 10.9387 18.9984 10.6563 18.7724 10.4503C18.5889 10.2822 18.4698 10.0469 18.1851 9.87218C18.3023 10.2511 18.3874 10.6391 18.4395 11.0322C18.6183 12.1829 18.622 13.2995 17.8655 14.2876C17.7464 14.4435 17.84 14.5493 17.9241 14.6655C18.3431 15.2256 18.6807 15.8368 19.0589 16.4235C19.2736 16.757 19.2481 17.0177 18.9729 17.3086C18.3711 17.9304 17.8399 18.6166 17.3889 19.3548C17.3 19.505 17.2442 19.7015 17.0239 19.6949C16.7837 19.6883 16.7345 19.4786 16.6645 19.3066C16.2976 18.396 16.151 17.439 16.0688 16.4726C16.0347 16.0768 16.0366 16.074 15.7198 16.2761C14.7591 16.8861 13.7301 17.3817 12.654 17.7526C11.9787 17.9746 11.324 18.255 10.6975 18.5906C9.55038 19.2197 8.79386 20.1002 8.46855 21.4397C7.60233 25.0295 7.12572 28.6494 7.3158 32.345C7.32242 32.4612 7.27798 32.5963 7.41037 32.7115C7.46805 32.6171 7.51817 32.5368 7.56167 32.4555C9.24683 29.3324 11.3793 26.5296 13.7254 23.8826C14.1444 23.4103 14.6115 22.989 15.2007 22.7348C16.0291 22.3686 16.7413 21.7828 17.2603 21.041C17.8097 20.2853 18.3468 19.5192 18.8963 18.7625C19.3814 18.0937 19.7701 18.02 20.4528 18.4791C20.6013 18.5736 20.6571 18.5858 20.7138 18.3988C20.9029 17.7744 21.2689 17.2491 21.7105 16.7796C22.521 15.9162 23.3484 15.0698 24.2213 14.2687C24.921 13.6273 25.7428 13.513 26.6412 13.6811C27.1058 13.7788 27.5595 13.9228 27.9954 14.1109C28.6289 14.3698 28.924 14.8043 28.8947 15.4826C28.8744 15.7784 28.9328 16.0743 29.0639 16.3404C29.1584 16.5257 29.2153 16.7278 29.2315 16.9351C29.2478 17.1424 29.2229 17.3509 29.1585 17.5486C29.0989 17.7432 29.0271 17.951 29.0923 18.14C29.3202 18.8012 29.0346 19.3132 28.6639 19.8111C28.6223 19.8404 28.541 19.8715 28.5836 19.9235C28.6261 19.9755 28.698 19.9311 28.7471 19.8838ZM23.6955 0.895901C23.2841 0.94219 22.8709 0.979033 22.4604 1.0376C19.8533 1.40697 17.3643 3.70158 17.6376 6.94181C17.7426 8.20106 18.1397 9.28648 19.0173 10.1924C19.1365 10.3152 19.2537 10.5306 19.4362 10.4673C19.6188 10.404 19.5771 10.1603 19.5951 9.99499C19.6613 9.38379 19.7105 8.76692 19.8467 8.16894C20.0528 7.26016 20.3403 6.38729 21.0448 5.72129C21.581 5.214 22.1796 5.13276 22.8359 5.48229C23.1562 5.66128 23.4932 5.80872 23.842 5.92251C25.4497 6.41752 27.0573 6.16434 28.6535 5.87244C28.8672 5.83371 28.8682 5.72224 28.8304 5.54086C28.5192 4.04828 27.741 2.84193 26.6317 1.81507C26.1494 1.35176 25.5288 1.05853 24.8643 0.979979C24.4767 0.922925 24.0854 0.894193 23.6936 0.894013L23.6955 0.895901ZM26.0955 13.9626C25.3939 13.9466 24.8662 14.1393 24.4189 14.5587C23.5801 15.3447 22.7735 16.1646 21.9848 16.9969C21.5422 17.4692 21.1772 17.9879 21.0089 18.6236C20.972 18.7616 20.937 18.8891 21.0647 19.0157C21.8458 19.7922 22.6231 20.5722 23.3966 21.3556C23.4912 21.4501 23.5517 21.4605 23.6624 21.3689C24.4596 20.7076 25.3816 20.2815 26.3584 19.9736C26.8161 19.829 27.2681 19.6259 27.7703 19.6637C27.9243 19.6738 28.0785 19.6475 28.2205 19.5869C28.3624 19.5263 28.488 19.4332 28.5872 19.3151C28.6864 19.1969 28.7563 19.0571 28.7914 18.907C28.8264 18.7568 28.8255 18.6005 28.7888 18.4508C28.705 18.129 28.7135 17.7902 28.8133 17.473C28.8678 17.3158 28.8902 17.1494 28.8793 16.9834C28.8685 16.8175 28.8245 16.6554 28.75 16.5066C28.5806 16.1788 28.5103 15.809 28.5476 15.442C28.5733 15.2757 28.5481 15.1056 28.4754 14.9539C28.4027 14.8022 28.2858 14.676 28.14 14.5918C27.4838 14.1912 26.7802 13.9456 26.0936 13.9607L26.0955 13.9626ZM25.6454 40.8234C26.0237 40.097 26.384 39.4329 26.7168 38.7565C26.8251 38.5473 26.8641 38.3091 26.8284 38.0763C26.2383 34.1962 25.6599 30.3146 25.0931 26.4313C24.9428 25.3969 24.7338 24.3852 24.3366 23.4178C24.1911 23.0302 24.0037 22.6596 23.7777 22.3126C23.7257 22.237 23.6832 22.1151 23.581 22.1236C23.4524 22.1388 23.4628 22.2833 23.4354 22.3768C23.3577 22.6628 23.3286 22.9598 23.3494 23.2554C23.46 25.1919 23.5773 27.1285 23.6747 29.0651C23.8297 32.2383 23.9971 35.4067 24.0189 38.578C24.0044 38.6957 24.0337 38.8147 24.1011 38.9124C24.6109 39.5377 25.1139 40.165 25.6454 40.8234ZM43.2081 18.4564C43.5863 17.6383 43.9391 16.8647 44.2975 16.0947C44.4138 15.8435 44.3249 15.7424 44.0648 15.7499C43.5438 15.766 43.0246 15.801 42.5017 15.7906C42.1612 15.7839 41.9759 15.937 41.8492 16.2261C41.6033 16.7929 41.3622 17.3597 41.0927 17.9085C40.983 18.1305 41.0662 18.1806 41.2487 18.2599C41.4492 18.3468 41.5191 18.3204 41.5872 18.1012C41.7679 17.5259 42.2984 17.4107 42.7116 17.8462C42.8799 18.0247 43.0265 18.2288 43.2081 18.4564ZM41.9305 21.2432C42.2047 20.65 42.4582 20.1096 42.7088 19.5589C43.07 18.7719 43.071 18.771 42.497 18.1324C42.4024 18.0294 42.3078 17.8991 42.1414 17.9501C41.9749 18.0011 41.9163 18.1475 41.8908 18.3062C41.7962 18.873 41.7962 18.873 41.2742 18.6472C41.2445 18.6294 41.2127 18.6151 41.1796 18.6047C41.0529 18.5849 40.8846 18.4035 40.808 18.583C40.7134 18.8107 40.4033 19.0289 40.6189 19.3123C41.0756 19.9141 41.4737 20.5555 41.9305 21.2432ZM24.1191 0.528425C22.381 0.0249148 19.9223 0.640841 18.6495 1.88309C17.8929 2.61804 17.5742 3.54382 17.4882 4.57729C18.7686 1.70454 21.0874 0.54354 24.1191 0.528425ZM27.4658 2.19105C27.5982 2.33842 27.7221 2.46406 27.8299 2.60009C28.4688 3.4091 28.9177 4.35113 29.1434 5.35665C29.1613 5.43316 29.133 5.54558 29.2304 5.5692C29.3278 5.59281 29.3892 5.48701 29.4469 5.41616C29.8034 4.98067 29.7675 4.29106 29.3382 3.74693C28.8937 3.19217 28.3769 2.69939 27.8015 2.28174C27.7069 2.20805 27.6124 2.14004 27.4658 2.19105V2.19105ZM38.5016 23.5633C38.3701 23.8467 38.2812 24.0357 38.1942 24.2312C38.1479 24.3313 38.1422 24.4343 38.2888 24.4201C38.5139 24.3927 38.8231 24.5543 38.9422 24.354C39.0614 24.1537 38.7909 23.9761 38.6633 23.7957C38.6207 23.7343 38.5819 23.6757 38.5016 23.5633V23.5633ZM39.2439 21.879C39.2032 22.152 38.9602 22.3088 39.121 22.4458C39.3775 22.6711 39.6743 22.8461 39.9957 22.9616C39.9219 22.4694 39.5049 22.2956 39.2439 21.879ZM37.8075 22.2984C37.8387 22.5818 38.0581 22.7707 38.2642 22.9597C38.2719 22.9682 38.2813 22.975 38.2918 22.9796C38.3023 22.9843 38.3137 22.9867 38.3252 22.9867C38.3367 22.9867 38.3481 22.9843 38.3586 22.9796C38.3691 22.975 38.3785 22.9682 38.3862 22.9597C38.5479 22.8274 38.5583 22.5185 38.3919 22.3929C38.2658 22.3009 38.1397 22.215 38.0136 22.135C37.8538 22.0462 37.8008 22.118 37.8056 22.2984H37.8075ZM39.1692 21.1724C39.3025 21.0533 39.329 20.9097 39.3886 20.785C39.4642 20.6273 39.3186 20.5819 39.2297 20.5177C39.156 20.4657 39.0718 20.3807 38.9772 20.4544C38.8827 20.5281 38.9072 20.6433 38.9413 20.7491C38.9844 20.9052 39.0616 21.0497 39.1673 21.1724H39.1692ZM28.3887 20.0737L28.4408 20.0369C28.4181 20.0189 28.42 19.9622 28.3698 19.9887C28.3409 20.0055 28.3128 20.0238 28.2857 20.0435C28.3103 20.0624 28.3046 20.119 28.3916 20.0737H28.3887Z"  stroke-width="4" mask="url(#path-1-inside-1_1_304)"/>
</svg>
