<svg width="38" height="45" viewBox="0 0 38 45" xmlns="http://www.w3.org/2000/svg">
<g clip-path="url(#clip0_1_254)">
<path d="M14.5251 29.9371C12.9041 30.5335 11.3563 29.8592 10.8056 28.2925C10.2653 26.75 10.1466 25.1547 10.1388 23.5205C10.1328 22.0767 9.93232 20.6338 10.0338 19.1813C10.378 14.1956 13.8196 11.8351 17.8883 11.2041C19.5762 10.9304 21.2943 10.9012 22.9904 11.1176C26.3296 11.559 28.7714 14.9002 28.755 18.0223C28.737 20.8017 27.8576 23.3085 26.506 25.6611C25.0932 28.1211 24.355 30.7057 24.4901 33.57C24.5873 35.6586 24.4987 37.7568 24.4901 39.8498C24.4901 40.8885 24.546 41.9272 24.8712 42.9425C24.441 43.0221 24.367 42.7962 24.3275 42.572C24.1737 41.7774 24.093 40.9701 24.0866 40.1605C24.102 38.4042 24.1838 36.6437 24.0814 34.8934C23.8732 31.3316 24.5374 28.0268 26.4268 24.9617C27.4101 23.3667 28.03 21.5723 28.2422 19.7076C28.4083 18.282 28.2999 16.878 27.7845 15.5269C26.9405 13.3136 25.4468 11.8767 23.0369 11.5556C20.7396 11.2491 18.4527 11.1695 16.2037 11.8827C13.0203 12.8937 11.1188 14.9798 10.6353 18.3746C10.1973 21.4509 10.2575 24.4908 10.9897 27.5039C11.4397 29.3554 12.1375 29.8254 14.0484 29.7389C14.2102 29.7346 14.3762 29.6419 14.5251 29.9371Z"/>
<path d="M21.7067 40.151C22.5129 40.4661 23.0068 40.183 23.116 39.3391C23.1892 38.779 23.005 38.29 22.7435 37.8018C22.3133 36.9933 21.8349 37.6616 21.4039 37.7585C20.2854 38.0095 19.2021 37.9464 18.1662 37.4634C17.73 37.2599 17.3428 36.9154 17.4908 36.3554C17.6388 35.7954 18.1241 35.643 18.6093 35.7235C19.7493 35.914 20.9668 35.8733 21.9227 36.7034C21.6009 37.0401 21.3247 36.7164 21.0675 36.609C20.2845 36.2853 19.4482 36.2706 18.6343 36.1356C18.3503 36.0879 17.9804 36.0724 17.8995 36.4679C17.8238 36.8323 18.118 37.0167 18.3977 37.1336C19.3582 37.5475 20.4318 37.6127 21.4348 37.3179C21.7902 37.2175 21.7893 36.9232 21.9081 36.6843C22.6549 36.8228 22.7108 36.2135 22.7882 35.7642C22.8421 35.4632 22.8171 35.1532 22.7157 34.8648C22.6143 34.5765 22.4401 34.3196 22.21 34.1196C21.9898 33.9223 21.816 34.265 21.6387 34.3914C20.4471 35.2423 19.1488 35.2864 17.8014 34.896C17.3712 34.7714 16.9686 34.5403 16.793 34.117C16.5504 33.5336 16.3826 32.9736 17.3446 32.8031C18.7289 32.5564 20.0892 32.3088 21.4159 33.0169C21.9012 33.2765 22.1137 33.1502 22.1231 32.5659C22.149 31.0797 20.6958 29.3632 19.308 29.4056C15.9421 29.5121 14.0596 27.9618 14.2738 24.3567C14.2919 24.0546 14.2738 23.7508 14.3668 23.4322C14.4872 24.1611 14.6636 24.8856 14.7161 25.6187C14.8468 27.4364 16.0135 28.6283 17.8384 28.8283C19.2245 28.9798 20.6484 29.1122 21.6379 30.311C22.0681 30.8304 22.4234 31.3619 22.3658 32.1192C22.3038 32.9467 22.2367 33.7872 22.9285 34.4918C23.2821 34.8519 23.3896 35.5227 23.1444 35.9287C22.6007 36.8297 23.0059 37.5343 23.3716 38.2926C23.677 38.9271 23.6555 39.6507 23.2141 40.1008C22.617 40.7067 22.6411 41.2823 22.7366 42.0397C22.9087 43.3718 21.9502 44.0245 20.9023 44.4564C19.7631 44.9256 18.5543 45.1212 17.299 44.9178C17.9873 44.4659 18.821 44.6321 19.5687 44.4304C20.3163 44.2288 21.0365 44.0513 21.6628 43.5735C21.8814 43.4164 22.0588 43.2083 22.1798 42.9671C22.3009 42.7259 22.3621 42.4588 22.358 42.1886C22.3658 41.4779 22.241 40.9534 21.2989 41.2018C20.5134 41.4078 19.6977 41.2832 18.8967 41.1958C18.4236 41.1544 17.9832 40.9357 17.6629 40.5829C17.2929 40.1744 16.9746 39.707 17.2224 39.1305C17.4745 38.5401 18.0303 38.6241 18.531 38.6674C19.4439 38.7462 20.2905 39.0612 21.1122 39.4551C21.4142 39.5996 21.7231 39.758 21.7291 40.17C20.6966 39.7191 19.6874 39.1815 18.5396 39.0448C18.1955 39.0041 17.8212 38.9366 17.619 39.2638C17.3833 39.6446 17.6732 39.9753 17.9004 40.254C18.0613 40.4505 18.2867 40.6816 18.513 40.7197C19.4714 40.8807 20.4316 40.9889 21.4133 40.8062C21.9304 40.7058 21.7067 40.4107 21.7067 40.151ZM19.2735 34.6978C19.9812 34.7448 20.685 34.5595 21.2791 34.1698C21.7756 33.84 21.8237 33.6176 21.218 33.3163C19.9223 32.6732 18.5938 33.0445 17.2835 33.1337C16.8438 33.164 16.7492 33.5423 17.0821 33.9335C17.6689 34.6225 18.4519 34.7099 19.2735 34.6952V34.6978Z"/>
<path d="M21.982 23.3136C21.6086 22.6766 21.7343 21.946 21.3591 21.3877C21.0339 20.9039 20.7569 20.4235 20.0393 20.9376C19.9137 21.0242 19.1978 21.4942 19.0387 20.5914C18.975 20.2304 18.3116 20.1993 17.8754 20.3958C17.4796 20.5741 17.4934 20.845 17.6577 21.2224C17.7757 21.4735 17.8318 21.7494 17.8215 22.0269C17.8112 22.3044 17.7346 22.5753 17.5984 22.8168C17.262 22.3477 17.6414 21.727 17.0675 21.3626C16.7629 21.9538 16.436 22.4931 17.0322 23.0635C17.1716 23.1968 17.4452 23.2799 17.2232 23.4868C17.0185 23.6781 16.7715 23.5621 16.6657 23.2989C16.5465 23.019 16.484 22.7179 16.482 22.4134C16.4799 22.1088 16.5383 21.8069 16.6537 21.5253C16.8189 21.1272 16.8395 20.8268 16.4454 20.5689C16.0084 20.2824 15.6178 20.3715 15.2512 20.6857C14.7763 21.0934 14.673 21.7244 14.3538 22.3407C14.4734 20.6364 15.1144 20.0989 16.7294 20.24C16.8937 20.2538 17.1114 20.3265 17.2155 20.2512C18.3194 19.441 19.4026 20.2434 20.4772 20.3231C21.4839 20.3966 22.1644 21.8759 21.982 23.3136Z"/>
<path d="M22.3546 26.4505C23.6882 26.6479 24.7361 26.1216 25.1491 24.7419C25.9975 21.9053 26.1773 19.0204 24.9383 16.2159C24.7009 15.6775 24.3042 15.2109 23.9386 14.6457C24.5116 14.6396 24.7 15.0707 24.9323 15.3987C25.4772 16.1661 25.7963 17.0723 25.8529 18.0137C25.939 19.9448 26.2521 21.9088 25.76 23.8226C25.458 24.9937 24.7181 25.9554 23.7811 26.7396C23.2872 27.1612 22.8708 26.9595 22.3546 26.4505Z"/>
<path d="M18.827 8.38232V0.00952231L18.9931 0.000865936V8.3754L18.827 8.38232Z"/>
<path d="M26.5447 10.1195C28.1269 8.49225 29.6421 6.80263 31.1297 5.0905C29.968 7.07115 28.406 8.78443 26.5447 10.1195Z"/>
<path d="M0 18.031C2.19485 17.6622 4.36475 17.6068 6.53895 17.632C6.53895 17.7653 6.54497 17.8977 6.54755 18.031H0Z"/>
<path d="M1.4704 28.3496L7.26081 25.0024L7.45267 25.3296L1.65882 28.6993L1.4704 28.3496Z"/>
<path d="M6.68091 4.98836L10.8331 9.98538L10.5501 10.2312L6.37891 5.23332L6.68091 4.98836Z"/>
<path d="M30.1316 16.9239H37.4974C35.0496 17.3299 32.5863 17.29 30.1248 17.29C30.1291 17.168 30.1308 17.046 30.1316 16.9239Z"/>
<path d="M28.9933 23.7456C30.6857 25.1807 32.3033 26.7076 34.2563 27.806C33.3564 27.8389 29.5887 24.9479 28.9933 23.7456Z"/>
<path d="M22.6816 13.7377C21.163 12.641 19.4585 12.9838 17.7309 13.0695C19.0456 12.0991 21.5209 12.4229 22.6816 13.7377Z"/>
<path d="M14.1422 29.2827C12.3113 28.9062 11.2883 27.4953 11.5886 25.7771C11.7718 27.4382 12.9101 28.3938 14.1422 29.2827Z"/>
<path d="M11.9026 19.5622C11.3821 20.278 11.5877 21.1263 11.5025 21.9149C11.4277 22.6073 11.487 23.318 11.4105 24.0148C11.1962 22.4974 10.5905 20.9333 11.8888 19.5743L11.9026 19.5622Z"/>
<path d="M11.8888 19.5717C11.9551 18.3339 12.4352 17.2572 12.9919 16.2107L13.2603 16.3223C12.8499 17.1611 12.4438 18.0024 12.0282 18.8394C11.9129 19.0706 11.6884 19.2722 11.9017 19.5596L11.8888 19.5717Z"/>
<path d="M13.6741 15.6385C13.8634 15.0473 14.2824 14.6942 14.846 14.4682C14.4846 14.901 14.1508 15.3459 13.6655 15.6299L13.6741 15.6385Z"/>
<path d="M20.1219 21.7357C19.9412 22.2871 19.8448 22.629 19.7132 22.957C19.6426 23.1301 19.462 23.1717 19.2951 23.0947C19.1823 23.0436 19.0034 22.9432 19.0051 22.8679C19.0094 22.6194 19.252 22.7614 19.3811 22.6991C19.7115 22.5424 19.7468 22.1685 20.1219 21.7357Z"/>
<path d="M21.8581 26.0247C21.6861 25.5053 21.705 25.2318 21.8581 24.7955V26.0247Z"/>
<path d="M23.5712 14.2138L23.5299 14.2605L23.5092 14.2025L23.5712 14.2138Z"/>
<path d="M13.6647 15.6299L13.5124 15.803C13.5666 15.7484 13.6199 15.693 13.6733 15.6385L13.6647 15.6299Z"/>
</g>
<defs>
<clipPath id="clip0_1_254">
<rect width="37.5" height="45"/>
</clipPath>
</defs>
</svg>
